<svg width="75" height="78" xmlns="http://www.w3.org/2000/svg" xmlns:xlink="http://www.w3.org/1999/xlink" overflow="hidden"><defs><clipPath id="clip0"><rect x="904" y="517" width="75" height="78"/></clipPath></defs><g clip-path="url(#clip0)" transform="translate(-904 -517)"><path d="M28.798 25.8189C30.4862 25.8189 31.7771 24.528 31.7771 22.8398L31.7771 16.8816C31.7771 15.1934 30.4862 13.9025 28.798 13.9025 27.1098 13.9025 25.8189 15.1934 25.8189 16.8816L25.8189 22.8398C25.8189 24.528 27.1098 25.8189 28.798 25.8189Z" fill="#FFFFFF" transform="matrix(1 0 0 1.00496 895.002 507.377)"/><path d="M19.8607 67.5263 35.7492 67.5263 35.7492 75.4706 19.8607 75.4706 19.8607 67.5263ZM19.8607 55.6099 35.7492 55.6099 35.7492 63.5542 19.8607 63.5542 19.8607 55.6099ZM19.8607 43.6935 35.7492 43.6935 35.7492 51.6378 19.8607 51.6378 19.8607 43.6935ZM55.6099 43.6935 55.6099 51.6378 39.7214 51.6378 39.7214 43.6935 55.6099 43.6935ZM75.4706 43.6935 75.4706 51.6378 59.5821 51.6378 59.5821 43.6935 75.4706 43.6935ZM75.4706 63.5542 59.5821 63.5542 59.5821 55.6099 75.4706 55.6099 75.4706 63.5542ZM75.4706 75.4706 59.5821 75.4706 59.5821 67.5263 75.4706 67.5263 75.4706 75.4706ZM39.7214 63.5542 39.7214 55.6099 55.6099 55.6099 55.6099 63.5542 39.7214 63.5542ZM39.7214 75.4706 39.7214 67.5263 55.6099 67.5263 55.6099 75.4706 39.7214 75.4706ZM13.9025 81.4288 81.4288 81.4288 81.4288 37.7353 13.9025 37.7353 13.9025 81.4288Z" fill="#FFFFFF" transform="matrix(1 0 0 1.00496 895.002 507.377)"/><path d="M66.5333 25.8189C68.2215 25.8189 69.5124 24.528 69.5124 22.8398L69.5124 16.8816C69.5124 15.1934 68.2215 13.9025 66.5333 13.9025 64.8452 13.9025 63.5542 15.1934 63.5542 16.8816L63.5542 22.8398C63.5542 24.528 64.8452 25.8189 66.5333 25.8189Z" fill="#FFFFFF" transform="matrix(1 0 0 1.00496 895.002 507.377)"/><path d="M73.4846 19.8607 73.4846 22.8398C73.4846 26.7126 70.4061 29.791 66.5333 29.791 62.6605 29.791 59.5821 26.7126 59.5821 22.8398L59.5821 19.8607 35.7492 19.8607 35.7492 22.8398C35.7492 26.7126 32.6708 29.791 28.798 29.791 24.9252 29.791 21.8468 26.7126 21.8468 22.8398L21.8468 19.8607 13.9025 19.8607 13.9025 33.7632 81.4288 33.7632 81.4288 19.8607 73.4846 19.8607Z" fill="#FFFFFF" transform="matrix(1 0 0 1.00496 895.002 507.377)"/></g></svg>