<svg width="48" height="47" xmlns="http://www.w3.org/2000/svg" xmlns:xlink="http://www.w3.org/1999/xlink" overflow="hidden"><defs><clipPath id="clip0"><rect x="112" y="271" width="48" height="47"/></clipPath></defs><g clip-path="url(#clip0)" transform="translate(-112 -271)"><path d="M23.5 4.89583C13.2188 4.89583 4.89583 13.2188 4.89583 23.5 4.89583 33.7812 13.2188 42.1042 23.5 42.1042 33.7812 42.1042 42.1042 33.7812 42.1042 23.5 42.1042 13.2188 33.7812 4.89583 23.5 4.89583ZM12.7292 20.5625C12.7292 18.9469 14.051 17.625 15.6667 17.625 17.2823 17.625 18.6042 18.9469 18.6042 20.5625 18.6042 22.1781 17.2823 23.5 15.6667 23.5 14.051 23.5 12.7292 22.1781 12.7292 20.5625ZM32.4104 34.7604C32.0677 34.7604 31.774 34.6135 31.6271 34.3687 29.7667 31.9208 26.8292 30.4031 23.5 30.4031 20.1708 30.4031 17.2823 31.9208 15.3729 34.3687 15.1771 34.6135 14.8833 34.7604 14.5896 34.7604 14.051 34.7604 13.6104 34.3198 13.6104 33.7812 13.6104 33.5854 13.6594 33.3896 13.8063 33.1938 16.0583 30.2563 19.5344 28.3958 23.5 28.3958 27.4656 28.3958 30.9417 30.2563 33.1938 33.1938 33.2917 33.3406 33.3896 33.5365 33.3896 33.7812 33.3896 34.3198 32.949 34.7604 32.4104 34.7604ZM31.3333 23.5C29.7177 23.5 28.3958 22.1781 28.3958 20.5625 28.3958 18.9469 29.7177 17.625 31.3333 17.625 32.949 17.625 34.2708 18.9469 34.2708 20.5625 34.2708 22.1781 32.949 23.5 31.3333 23.5Z" fill="#FF3300" transform="matrix(1.02128 0 0 1 112 271)"/></g></svg>