<svg width="47" height="47" xmlns="http://www.w3.org/2000/svg" xmlns:xlink="http://www.w3.org/1999/xlink" overflow="hidden"><defs><clipPath id="clip0"><rect x="170" y="271" width="47" height="47"/></clipPath></defs><g clip-path="url(#clip0)" transform="translate(-170 -271)"><path d="M193.503 275.896C183.228 275.896 174.899 284.225 174.899 294.5 174.899 304.775 183.228 313.104 193.503 313.104 203.778 313.104 212.107 304.775 212.107 294.5 212.107 284.225 203.778 275.896 193.503 275.896ZM182.732 291.562C182.732 289.94 184.047 288.625 185.67 288.625 187.292 288.625 188.607 289.94 188.607 291.562 188.607 293.185 187.292 294.5 185.67 294.5 184.047 294.5 182.732 293.185 182.732 291.562ZM200.145 301.007 195.618 301.007C192.688 301.007 190.196 303.14 189.026 305.254 188.764 305.727 188.168 305.899 187.695 305.637 187.222 305.375 187.051 304.779 187.313 304.306 188.653 301.88 191.635 299.048 195.618 299.048L200.145 299.048C200.686 299.048 201.124 299.487 201.124 300.027 201.124 300.568 200.686 301.007 200.145 301.007ZM201.336 294.5C199.714 294.5 198.399 293.185 198.399 291.562 198.399 289.94 199.714 288.625 201.336 288.625 202.959 288.625 204.274 289.94 204.274 291.562 204.274 293.185 202.959 294.5 201.336 294.5Z" fill="#FF3300"/></g></svg>