<svg width="47" height="47" xmlns="http://www.w3.org/2000/svg" xmlns:xlink="http://www.w3.org/1999/xlink" overflow="hidden"><defs><clipPath id="clip0"><rect x="285" y="271" width="47" height="47"/></clipPath></defs><g clip-path="url(#clip0)" transform="translate(-285 -271)"><path d="M308.519 275.896C298.244 275.896 289.914 284.225 289.914 294.5 289.914 304.775 298.244 313.104 308.519 313.104 318.793 313.104 327.123 304.775 327.123 294.5 327.123 284.225 318.793 275.896 308.519 275.896ZM295.3 290.04 298.819 288.243 299.334 284.326 302.13 287.117 306.015 286.396 304.224 289.918 306.11 293.39 302.207 292.776 299.488 295.642 298.866 291.74ZM308.519 308.208C303.847 308.209 299.582 305.549 297.526 301.354L319.509 301.354C317.453 305.549 313.19 308.208 308.519 308.208ZM318.212 291.74 317.591 295.642 314.869 292.776 310.967 293.391 312.852 289.918 311.062 286.396 314.947 287.118 317.743 284.327 318.258 288.244 321.777 290.04Z" fill="#FF3300"/></g></svg>