<svg width="47" height="47" xmlns="http://www.w3.org/2000/svg" xmlns:xlink="http://www.w3.org/1999/xlink" overflow="hidden"><defs><clipPath id="clip0"><rect x="381" y="191" width="47" height="47"/></clipPath></defs><g clip-path="url(#clip0)" transform="translate(-381 -191)"><path d="M404.5 195.896C394.219 195.896 385.896 204.219 385.896 214.5 385.896 224.781 394.219 233.104 404.5 233.104 414.781 233.104 423.104 224.781 423.104 214.5 423.104 204.219 414.781 195.896 404.5 195.896ZM412.333 208.625C413.949 208.625 415.271 209.947 415.271 211.562 415.271 213.178 413.949 214.5 412.333 214.5 410.718 214.5 409.396 213.178 409.396 211.562 409.396 209.947 410.718 208.625 412.333 208.625ZM396.667 208.625C398.282 208.625 399.604 209.947 399.604 211.562 399.604 213.178 398.282 214.5 396.667 214.5 395.051 214.5 393.729 213.178 393.729 211.562 393.729 209.947 395.051 208.625 396.667 208.625ZM404.5 228.208C399.653 228.208 395.492 225.418 393.484 221.354L404.5 221.354 415.516 221.354C413.508 225.418 409.347 228.208 404.5 228.208Z" fill="#FF3300"/></g></svg>