<svg width="64" height="63" xmlns="http://www.w3.org/2000/svg" xmlns:xlink="http://www.w3.org/1999/xlink" overflow="hidden"><defs><clipPath id="clip0"><rect x="753" y="472" width="64" height="63"/></clipPath></defs><g clip-path="url(#clip0)" transform="translate(-753 -472)"><path d="M50.4359 225.974C67.9815 225.974 82.2051 240.181 82.2051 257.704 82.2051 273.038 71.3153 285.83 56.8386 288.788L56.5112 288.822 56.716 287.052C56.9111 282.974 55.9282 276.696 57.0845 274.906 58.6261 272.519 65.2032 274.7 67.1043 271.211 69.0056 267.721 68.6973 257.586 68.4918 253.967 68.2863 250.349 67.0787 249.785 65.8713 249.502 64.6637 249.22 62.043 249.451 61.2466 252.273 60.4502 255.096 61.4264 264.796 61.0924 266.438 60.7586 268.08 57.5212 270.211 56.4679 266.747 55.4145 263.283 55.8255 249.835 54.7721 245.653 53.7187 241.471 51.6121 241.626 50.1476 241.651 48.683 241.676 46.8334 242.189 45.9855 245.808 45.1376 249.426 45.2918 258.508 45.0606 263.358 44.8294 268.208 45.4716 273.007 44.5981 274.906 43.7245 276.805 40.7443 276.317 39.8194 274.752 38.8945 273.187 39.5881 267.644 39.0485 265.514 38.5092 263.385 37.3016 261.563 34.7322 261.972 32.163 262.383 32.0602 265.077 31.9575 267.978 31.8548 270.877 31.9575 276.985 34.1157 279.37 36.2738 281.757 42.8768 280.551 44.9064 282.296 46.4287 283.604 45.4074 286.458 45.582 288.355L45.8791 288.974 44.0332 288.788C29.5565 285.83 18.6667 273.038 18.6667 257.704 18.6667 240.181 32.8903 225.974 50.4359 225.974Z" fill="#FF3300" fill-rule="evenodd" transform="matrix(1.00726 0 0 1 734.198 246.026)"/></g></svg>