<svg width="354" height="351" xmlns="http://www.w3.org/2000/svg" xmlns:xlink="http://www.w3.org/1999/xlink" overflow="hidden"><defs><clipPath id="clip0"><rect x="104" y="1259" width="354" height="351"/></clipPath></defs><g clip-path="url(#clip0)" transform="translate(-104 -1259)"><path d="M281 1259C378.754 1259 458 1338.15 458 1435.78 458 1521.21 397.328 1592.48 316.672 1608.96L314.848 1609.15 315.989 1599.29C317.076 1576.57 311.6 1541.59 318.042 1531.62 326.631 1518.32 363.275 1530.47 373.867 1511.03 384.46 1491.59 382.742 1435.12 381.597 1414.96 380.452 1394.8 373.724 1391.66 366.997 1390.08 360.269 1388.51 345.668 1389.8 341.231 1405.52 336.794 1421.25 342.233 1475.29 340.372 1484.44 338.512 1493.59 320.475 1505.46 314.607 1486.16 308.738 1466.86 311.028 1391.94 305.159 1368.64 299.29 1345.34 287.553 1346.2 279.394 1346.34 271.234 1346.48 260.929 1349.34 256.205 1369.5 251.481 1389.66 252.34 1440.26 251.052 1467.28 249.764 1494.3 253.342 1521.04 248.475 1531.62 243.608 1542.2 227.004 1539.48 221.851 1530.76 216.698 1522.04 220.562 1491.16 217.556 1479.29 214.551 1467.43 207.823 1457.28 193.508 1459.56 179.194 1461.85 178.621 1476.86 178.049 1493.02 177.477 1509.17 178.049 1543.2 190.073 1556.49 202.097 1569.79 238.885 1563.07 250.193 1572.79 258.674 1580.08 252.984 1595.98 253.957 1606.55L255.612 1610 245.328 1608.96C164.672 1592.48 104 1521.21 104 1435.78 104 1338.15 183.246 1259 281 1259Z" fill="#FF3300" fill-rule="evenodd"/></g></svg>