<svg width="70" height="70" xmlns="http://www.w3.org/2000/svg" xmlns:xlink="http://www.w3.org/1999/xlink" overflow="hidden"><defs><clipPath id="clip0"><rect x="981" y="327" width="70" height="70"/></clipPath></defs><g clip-path="url(#clip0)" transform="translate(-981 -327)"><path d="M1040.8 353.25C1040.8 348.019 1036.56 343.775 1031.33 343.771 1029.19 343.769 1027.12 344.492 1025.44 345.821 1024.96 340.61 1020.35 336.772 1015.14 337.249 1010.59 337.665 1006.99 341.27 1006.57 345.821 1002.47 342.572 996.51 343.262 993.261 347.363 990.011 351.464 990.702 357.422 994.802 360.671 996.283 361.844 998.08 362.548 999.963 362.692L999.963 378.042 1032.05 378.042 1032.05 362.692C1036.98 362.314 1040.79 358.2 1040.8 353.25Z" fill="#FF3300"/><path d="M999.963 380.958 1032.05 380.958 1032.05 386.792 999.963 386.792Z" fill="#FF3300"/></g></svg>