<svg width="64" height="63" xmlns="http://www.w3.org/2000/svg" xmlns:xlink="http://www.w3.org/1999/xlink" overflow="hidden"><defs><clipPath id="clip0"><rect x="672" y="331" width="64" height="63"/></clipPath></defs><g clip-path="url(#clip0)" transform="translate(-672 -331)"><path d="M51.5812 20.6062C60.1125 11.025 57.0281 7.67812 57.0281 7.67812 55.9781 6.62813 54.3375 6.62813 53.2875 7.67812L28.4156 32.55 6.75938 52.7625C5.25 54.2719 5.25 56.7656 6.75938 58.3406 8.26875 59.85 10.7625 59.85 12.3375 58.3406L32.0906 36.6844C33.075 37.1437 35.7 38.4562 36.4875 37.6031L51.5812 20.6062Z" fill="#009900" transform="matrix(1.01587 0 0 1 672 331)"/><path d="M58.275 52.7625 41.0156 36.4219 38.3906 39.375C37.9312 39.8344 37.1437 40.425 35.8969 40.4906L52.7625 58.3406C54.3375 59.85 56.8312 59.85 58.3406 58.3406 59.7844 56.7656 59.7844 54.2719 58.275 52.7625Z" fill="#009900" transform="matrix(1.01587 0 0 1 672 331)"/><path d="M23.5594 31.2375C23.5594 31.2375 24.7406 30.975 26.0531 31.1719L26.5781 30.6469 31.1063 26.1187C30.9094 24.8719 31.1719 23.625 31.1719 23.625 31.6313 20.8031 30.5156 17.5219 27.1688 14.175 21.6562 8.6625 13.7812 3.54375 13.7812 3.54375L12.6 4.725 25.8563 17.9812C26.25 18.375 26.25 18.9656 25.8563 19.3594 25.4625 19.7531 24.8719 19.7531 24.4781 19.3594L11.2219 6.10313 9.38438 7.94063 22.6406 21.1969C23.0344 21.5906 23.0344 22.1812 22.6406 22.575 22.2469 22.9688 21.6562 22.9688 21.2625 22.575L8.00625 9.31875 6.16875 11.1562 19.425 24.4125C19.8188 24.8062 19.8188 25.3969 19.425 25.7906 19.0312 26.1844 18.4406 26.1844 18.0469 25.7906L4.725 12.6 3.54375 13.7812C3.54375 13.7812 9.12187 22.1812 14.1094 27.2344 17.4563 30.5812 20.7375 31.6969 23.5594 31.2375Z" fill="#009900" transform="matrix(1.01587 0 0 1 672 331)"/></g></svg>