<svg width="70" height="70" xmlns="http://www.w3.org/2000/svg" xmlns:xlink="http://www.w3.org/1999/xlink" overflow="hidden"><defs><clipPath id="clip0"><rect x="816" y="324" width="70" height="70"/></clipPath></defs><g clip-path="url(#clip0)" transform="translate(-816 -324)"><path d="M882.332 354.115C882.343 354.042 882.351 353.969 882.354 353.896 882.359 352.691 881.386 351.711 880.181 351.706 879.054 351.702 878.11 352.556 878.001 353.677L877.99 353.677 876 373.583 872.843 373.583 873.218 377.958 876.083 377.958 876.708 382.333 873.595 382.333 873.844 385.25 877.125 385.25 877.854 390.354 882.274 390.354 880.182 375.724 882.343 354.115Z" fill="#382C28"/><path d="M823.888 353.677 823.875 353.677C823.759 352.478 822.692 351.6 821.493 351.716 820.372 351.825 819.518 352.769 819.522 353.896 819.525 353.969 819.533 354.042 819.544 354.115L819.535 354.115 821.696 375.724 819.606 390.354 824.025 390.354 824.754 385.25 828.036 385.25 828.286 382.333 825.172 382.333 825.797 377.958 828.661 377.958 829.036 373.583 825.879 373.583Z" fill="#382C28"/><path d="M833.989 364.833C832.853 364.833 831.906 365.703 831.809 366.834L829.794 390.354 872.085 390.354 870.069 366.834C869.972 365.703 869.025 364.833 867.89 364.833Z" fill="#382C28"/><path d="M848.023 359 848.023 363.375 853.856 363.375 853.856 359C853.856 358.597 853.53 358.271 853.127 358.271L848.752 358.271C848.349 358.271 848.023 358.597 848.023 359Z" fill="#382C28"/><path d="M850.046 354.787 849.965 354.868C849.77 355.062 849.655 355.322 849.641 355.597 849.624 356.268 850.155 356.825 850.826 356.842 851.497 356.858 852.055 356.328 852.071 355.656 852.072 355.637 852.072 355.617 852.071 355.597 852.071 354.909 851.545 353.167 850.856 353.167 850.167 353.167 851.018 353.977 850.046 354.787Z" fill="#382C28"/><path d="M836.356 363.375 843.648 363.375C844.856 363.375 845.835 362.396 845.835 361.188L834.169 361.188C834.169 362.396 835.148 363.375 836.356 363.375Z" fill="#382C28"/><path d="M858.231 363.375 865.523 363.375C866.731 363.375 867.71 362.396 867.71 361.188L856.044 361.188C856.044 362.396 857.023 363.375 858.231 363.375Z" fill="#382C28"/><path d="M859.633 339.549C859.403 338.557 858.52 337.854 857.501 337.854L852.397 337.854 852.397 327.646 849.48 327.646 849.48 337.854 844.376 337.854C843.357 337.854 842.473 338.557 842.244 339.549L840.448 347.333 861.427 347.333Z" fill="#382C28"/></g></svg>