<svg width="810" height="427" xmlns="http://www.w3.org/2000/svg" xmlns:xlink="http://www.w3.org/1999/xlink" overflow="hidden"><defs><clipPath id="clip0"><rect x="1275" y="1095" width="810" height="427"/></clipPath><clipPath id="clip1"><rect x="1430" y="1104" width="90" height="123"/></clipPath><clipPath id="clip2"><rect x="1430" y="1104" width="90" height="123"/></clipPath><clipPath id="clip3"><rect x="1401" y="1104" width="149" height="123"/></clipPath></defs><g clip-path="url(#clip0)" transform="translate(-1275 -1095)"><g clip-path="url(#clip1)"><g clip-path="url(#clip2)"><g clip-path="url(#clip3)"><path d="M85.7813 22.875C82.2229 22.875 79.4271 25.6708 79.4271 29.2292L79.4271 55.9167C79.4271 58.0771 77.775 59.7292 75.6146 59.7292L71.8021 59.7292C71.675 41.175 69.0063 12.7083 69.0063 12.7083 69.0063 8.51459 65.7021 5.21042 61.6354 5.08333 57.5688 5.21042 54.2646 8.51459 54.2646 12.7083 54.2646 12.7083 51.4688 42.5729 51.4688 61 51.4688 64.9396 51.5958 69.7688 51.85 74.9792L46.3854 74.9792C44.225 74.9792 42.5729 73.3271 42.5729 71.1667L42.5729 54.6459C42.5729 51.0875 39.7771 48.2917 36.2188 48.2917 32.6604 48.2917 29.8646 51.0875 29.8646 54.6459L29.8646 71.1667C29.8646 80.3167 37.2354 87.6875 46.3854 87.6875L52.6125 87.6875C53.5021 102.81 54.6459 116.917 54.6459 116.917L68.625 116.917C68.625 116.917 70.7854 91.5 71.5479 72.4375L75.6146 72.4375C84.7646 72.4375 92.1354 65.0667 92.1354 55.9167L92.1354 29.2292C92.1354 25.6708 89.3396 22.875 85.7813 22.875Z" fill="#009900" transform="matrix(1.2153 0 0 1 1401.08 1104)"/></g></g></g><text fill="#FF3300" font-family="Bahnschrift Condensed,Bahnschrift Condensed_MSFontService,sans-serif" font-weight="700" font-stretch="condensed" font-size="183" transform="matrix(1 0 0 1 1385.15 1373)">El Arriero</text><path d="M1393.5 1221.5 2068.74 1221.5" stroke="#56423C" stroke-width="6.875" stroke-miterlimit="8" fill="none" fill-rule="evenodd"/><text fill="#56423C" font-family="Bahnschrift Light SemiCondensed,Bahnschrift Light SemiCondensed_MSFontService,sans-serif" font-weight="700" font-stretch="semi-condensed" font-size="83" transform="matrix(1 0 0 1 1625.16 1202)">Restaurante</text><path d="M1391.5 1400.5 2068.15 1400.5" stroke="#56423C" stroke-width="6.875" stroke-miterlimit="8" fill="none" fill-rule="evenodd"/></g></svg>