<svg width="38" height="37" xmlns="http://www.w3.org/2000/svg" xmlns:xlink="http://www.w3.org/1999/xlink" overflow="hidden"><defs><clipPath id="clip0"><rect x="744" y="450" width="38" height="37"/></clipPath></defs><g clip-path="url(#clip0)" transform="translate(-744 -450)"><path d="M25.9775 0 11.0225 0C4.94467 0 0 4.94467 0 11.0225L0 25.9775C0 32.0553 4.94467 37 11.0225 37L25.9775 37C32.0553 37 37 32.0553 37 25.9775L37 11.0225C36.9999 4.94467 32.0553 0 25.9775 0ZM33.2778 25.9775C33.2778 30.0093 30.0093 33.2778 25.9775 33.2778L11.0225 33.2778C6.99069 33.2778 3.7222 30.0093 3.7222 25.9775L3.7222 11.0225C3.7222 6.99062 6.99069 3.7222 11.0225 3.7222L25.9775 3.7222C30.0093 3.7222 33.2778 6.99062 33.2778 11.0225L33.2778 25.9775 33.2778 25.9775Z" fill="#56423C" transform="matrix(1.02703 0 0 1 744 450)"/><path d="M18.5 8.93048C13.2234 8.93048 8.93048 13.2234 8.93048 18.4999 8.93048 23.7765 13.2234 28.0695 18.5 28.0695 23.7766 28.0695 28.0695 23.7766 28.0695 18.4999 28.0695 13.2233 23.7766 8.93048 18.5 8.93048ZM18.5 24.3473C15.2706 24.3473 12.6527 21.7294 12.6527 18.5 12.6527 15.2706 15.2707 12.6527 18.5 12.6527 21.7294 12.6527 24.3473 15.2706 24.3473 18.5 24.3473 21.7293 21.7293 24.3473 18.5 24.3473Z" fill="#56423C" transform="matrix(1.02703 0 0 1 744 450)"/><path d="M30.3808 9.00247C30.3808 10.2688 29.3542 11.2955 28.0878 11.2955 26.8214 11.2955 25.7948 10.2688 25.7948 9.00247 25.7948 7.73608 26.8214 6.70948 28.0878 6.70948 29.3542 6.70948 30.3808 7.73608 30.3808 9.00247Z" fill="#56423C" transform="matrix(1.02703 0 0 1 744 450)"/></g></svg>