<svg width="38" height="38" xmlns="http://www.w3.org/2000/svg" xmlns:xlink="http://www.w3.org/1999/xlink" overflow="hidden"><defs><clipPath id="clip0"><rect x="743" y="395" width="38" height="38"/></clipPath></defs><g clip-path="url(#clip0)" transform="translate(-743 -395)"><path d="M771.118 416.835C771.044 416.8 768.274 415.436 767.781 415.258 767.58 415.186 767.365 415.116 767.136 415.116 766.762 415.116 766.448 415.302 766.203 415.668 765.926 416.08 765.089 417.059 764.83 417.352 764.796 417.39 764.75 417.436 764.722 417.436 764.697 417.436 764.269 417.26 764.139 417.203 761.167 415.912 758.911 412.808 758.602 412.285 758.558 412.209 758.556 412.175 758.556 412.175 758.567 412.135 758.667 412.035 758.718 411.984 758.869 411.834 759.032 411.637 759.191 411.447 759.266 411.357 759.341 411.267 759.414 411.181 759.644 410.914 759.746 410.707 759.864 410.467L759.926 410.342C760.215 409.768 759.969 409.283 759.889 409.126 759.823 408.995 758.653 406.172 758.529 405.876 758.23 405.16 757.835 404.827 757.286 404.827 757.235 404.827 757.286 404.827 757.072 404.836 756.812 404.847 755.395 405.033 754.768 405.428 754.104 405.847 752.98 407.182 752.98 409.53 752.98 411.644 754.321 413.639 754.897 414.398 754.911 414.417 754.937 414.456 754.976 414.512 757.181 417.732 759.93 420.119 762.716 421.232 765.399 422.303 766.67 422.427 767.392 422.427 767.392 422.427 767.392 422.427 767.392 422.427 767.695 422.427 767.938 422.404 768.153 422.382L768.289 422.37C769.215 422.287 771.252 421.232 771.715 419.945 772.08 418.931 772.177 417.823 771.934 417.421 771.767 417.147 771.481 417.01 771.118 416.835Z" fill="#56423C"/><path d="M762.337 395C752.046 395 743.673 403.31 743.673 413.524 743.673 416.828 744.557 420.062 746.232 422.892L743.026 432.348C742.966 432.524 743.011 432.719 743.141 432.852 743.235 432.948 743.363 433 743.494 433 743.543 433 743.594 432.992 743.643 432.977L753.503 429.844C756.201 431.285 759.251 432.046 762.337 432.046 772.628 432.046 781 423.737 781 413.524 781 403.31 772.628 395 762.337 395ZM762.337 428.188C759.433 428.188 756.62 427.349 754.202 425.762 754.121 425.709 754.027 425.682 753.932 425.682 753.881 425.682 753.831 425.689 753.782 425.705L748.843 427.275 750.437 422.571C750.489 422.418 750.463 422.25 750.368 422.121 748.527 419.605 747.553 416.632 747.553 413.524 747.553 405.438 754.185 398.859 762.337 398.859 770.488 398.859 777.119 405.438 777.119 413.524 777.119 421.61 770.488 428.188 762.337 428.188Z" fill="#56423C"/></g></svg>