<svg width="25" height="23" xmlns="http://www.w3.org/2000/svg" xmlns:xlink="http://www.w3.org/1999/xlink" overflow="hidden"><defs><clipPath id="clip0"><rect x="392" y="323" width="25" height="23"/></clipPath></defs><g clip-path="url(#clip0)" transform="translate(-392 -323)"><path d="M26.4871 5.72876 5.86355 5.72876C5.22705 5.73246 4.71409 6.25145 4.7178 6.88795 4.7178 6.88795 4.7178 6.88799 4.7178 6.88799L4.7178 20.819C4.71406 21.4555 5.22702 21.9745 5.86352 21.9782 5.86352 21.9782 5.86355 21.9782 5.86355 21.9782L18.4668 21.9782 23.0498 26.6219 23.0498 21.9782 26.4871 21.9782C27.1236 21.9745 27.6365 21.4555 27.6328 20.819 27.6328 20.819 27.6328 20.819 27.6328 20.819L27.6328 6.88799C27.6366 6.25149 27.1236 5.7325 26.4871 5.72876 26.4871 5.72876 26.4871 5.72876 26.4871 5.72876ZM10.7835 15.5013C9.85299 15.5013 9.09861 14.747 9.09861 13.8164 9.09861 12.8859 9.85299 12.1315 10.7835 12.1315 11.7141 12.1315 12.4685 12.8859 12.4685 13.8164 12.4685 14.747 11.7141 15.5013 10.7835 15.5013ZM16.1753 15.5013C15.2448 15.5013 14.4904 14.747 14.4904 13.8164 14.4904 12.8859 15.2448 12.1315 16.1753 12.1315 17.1059 12.1315 17.8602 12.8859 17.8602 13.8164 17.8602 14.747 17.1059 15.5013 16.1753 15.5013ZM21.5671 15.5013C20.6365 15.5013 19.8822 14.747 19.8822 13.8164 19.8822 12.8859 20.6365 12.1315 21.5671 12.1315 22.4976 12.1315 23.252 12.8859 23.252 13.8164 23.252 14.747 22.4976 15.5013 21.5671 15.5013Z" fill="#FFFFFF" transform="matrix(1.00543 0 0 1 388.314 318.284)"/></g></svg>